# xmcd CD database file
#
# Track frame offsets:
#	150
#	25284
#	45206
#	68003
#	84760
#	105607
#	133689
#	159971
#	180613
#	201253
#	214792
#	215244
#	215696
#	216148
#	216600
#	217052
#	217504
#	217956
#	218408
#	218860
#	219312
#	219764
#
# Disc length: 4245 seconds
#
# Revision: 20
# Processed by: cddbd v1.5.1PL0 Copyright (c) Steve Scherf et al.
# Submitted via: CDex 1.51
#
DISCID=57109316
DTITLE=BUMP OF CHICKEN - jupiter
DYEAR=2002
DGENRE=Rock
TTITLE0=Stage of the ground
TTITLE1=天体観測
TTITLE2=Title of mine
TTITLE3=キャッチボール
TTITLE4=ハルジオン
TTITLE5=ベンチとコーヒー
TTITLE6=メロディーフラッグ
TTITLE7=ベル
TTITLE8=ダイヤモンド
TTITLE9=ダンデライオン
TTITLE10=Track11
TTITLE11=Track12
TTITLE12=Track13
TTITLE13=Track14
TTITLE14=Track15
TTITLE15=Track16
TTITLE16=Track17
TTITLE17=Track18
TTITLE18=Track19
TTITLE19=Track20
TTITLE20=Track21
TTITLE21=In My Heart〜In My Nikke
EXTD=YEAR: 2002
EXTT0=
EXTT1=
EXTT2=
EXTT3=
EXTT4=
EXTT5=
EXTT6=
EXTT7=
EXTT8=
EXTT9=
EXTT10=
EXTT11=
EXTT12=
EXTT13=
EXTT14=
EXTT15=
EXTT16=
EXTT17=
EXTT18=
EXTT19=
EXTT20=
EXTT21=
PLAYORDER=
